<?xml version="1.0" encoding="UTF-8"?>
<svg width="558px" height="558px" viewBox="0 0 558 558" version="1.1" xmlns="http://www.w3.org/2000/svg" xmlns:xlink="http://www.w3.org/1999/xlink">
    <!-- Generator: Sketch 51.2 (57519) - http://www.bohemiancoding.com/sketch -->
    <title>Oval_2</title>
    <desc>Created with Sketch.</desc>
    <defs></defs>
    <g id="Pages" stroke="none" stroke-width="1" fill="none" fill-rule="evenodd" opacity="0.444642857" stroke-linecap="round">
        <g id="0_Login" transform="translate(-466.000000, -154.000000)" stroke="#306EAF" stroke-width="7">
            <g id="Oval_2" transform="translate(470.000000, 158.000000)">
                <path d="M504.177887,426 C533.13147,382.560244 550,330.424673 550,274.361675 C550,180.098018 502.311551,96.9374553 429.672416,47.5460167 C385.5465,17.5423212 332.213361,0 274.770027,0 C211.622623,0 153.44222,21.1991658 107,56.847677 M43.3348445,128 C15.8876563,170.484777 0,220.84087 0,274.830372 C0,335.472815 20.0444691,391.53121 54,437 M123,503.50387 C166.791462,532.875195 219.427267,550 276.047623,550 C336.117731,550 391.702957,530.724872 437,498" id="Oval"></path>
            </g>
        </g>
    </g>
</svg>