<?xml version="1.0" encoding="UTF-8"?>
<svg width="501px" height="501px" viewBox="0 0 501 501" version="1.1" xmlns="http://www.w3.org/2000/svg" xmlns:xlink="http://www.w3.org/1999/xlink">
    <!-- Generator: Sketch 51.2 (57519) - http://www.bohemiancoding.com/sketch -->
    <title>Oval_1</title>
    <desc>Created with Sketch.</desc>
    <defs>
        <polygon id="path-1" points="0 0.453151991 43.9892725 0.453151991 43.9892725 2.51524276 0 2.51524276"></polygon>
        <polygon id="path-3" points="0.30147767 0.629999823 2.36356844 0.629999823 2.36356844 47.8823692 0.30147767 47.8823692"></polygon>
    </defs>
    <g id="Pages" stroke="none" stroke-width="1" fill="none" fill-rule="evenodd" opacity="0.424441964">
        <g id="0_Login" transform="translate(-495.000000, -180.000000)">
            <g id="Oval_1" transform="translate(495.000000, 180.000000)">
                <g id="Group-17" transform="translate(197.000000, 0.000000)" stroke="#306EAF" stroke-width="2">
                    <path d="M39.4260489,0.486683579 L40.7066072,24.7819934" id="Stroke-1"></path>
                    <path d="M64.5095272,476.361891 L65.7900856,500.6572" id="Stroke-3"></path>
                    <path d="M26.2802202,1.51569759 L28.8372128,25.7105458" id="Stroke-5"></path>
                    <path d="M76.3785092,475.432928 L78.9355018,499.627776" id="Stroke-7"></path>
                    <path d="M13.2049151,3.22764558 L17.0321556,27.2564246" id="Stroke-9"></path>
                    <path d="M88.1812982,473.889305 L92.0085386,497.918084" id="Stroke-11"></path>
                    <path d="M0.240344223,5.61617183 L5.32752215,29.4112238" id="Stroke-13"></path>
                    <path d="M99.8892309,471.730815 L104.976409,495.525867" id="Stroke-15"></path>
                </g>
                <path d="M185,9 L191,33" id="Stroke-18" stroke="#306EAF" stroke-width="2"></path>
                <path d="M309,469 L315,493" id="Stroke-19" stroke="#306EAF" stroke-width="2"></path>
                <path d="M173,13 L180,37" id="Stroke-20" stroke="#306EAF" stroke-width="2"></path>
                <path d="M321,467 L328,491" id="Stroke-21" stroke="#306EAF" stroke-width="2"></path>
                <path d="M161,17 L170,39" id="Stroke-22" stroke="#306EAF" stroke-width="2"></path>
                <path d="M330,463 L339,485" id="Stroke-23" stroke="#306EAF" stroke-width="2"></path>
                <path d="M150,22 L161,44" id="Stroke-24" stroke="#306EAF" stroke-width="2"></path>
                <path d="M343,457 L354,479" id="Stroke-25" stroke="#306EAF" stroke-width="2"></path>
                <path d="M138,28 L149,50" id="Stroke-26" stroke="#306EAF" stroke-width="2"></path>
                <path d="M353,452 L364,474" id="Stroke-27" stroke="#306EAF" stroke-width="2"></path>
                <path d="M126,34 L138,55" id="Stroke-28" stroke="#306EAF" stroke-width="2"></path>
                <path d="M363,447 L375,468" id="Stroke-29" stroke="#306EAF" stroke-width="2"></path>
                <path d="M114,40 L127,61" id="Stroke-30" stroke="#306EAF" stroke-width="2"></path>
                <path d="M374,441 L387,462" id="Stroke-31" stroke="#306EAF" stroke-width="2"></path>
                <path d="M104,48 L118,67" id="Stroke-32" stroke="#306EAF" stroke-width="2"></path>
                <path d="M384,434 L398,453" id="Stroke-33" stroke="#306EAF" stroke-width="2"></path>
                <path d="M93,57 L109,75" id="Stroke-34" stroke="#306EAF" stroke-width="2"></path>
                <path d="M393,428 L409,446" id="Stroke-35" stroke="#306EAF" stroke-width="2"></path>
                <path d="M82,65 L98,83" id="Stroke-36" stroke="#306EAF" stroke-width="2"></path>
                <path d="M402,420 L418,438" id="Stroke-37" stroke="#306EAF" stroke-width="2"></path>
                <path d="M73,74 L90,91" id="Stroke-38" stroke="#306EAF" stroke-width="2"></path>
                <path d="M410,411 L427,428" id="Stroke-39" stroke="#306EAF" stroke-width="2"></path>
                <path d="M64,84 L82,100" id="Stroke-40" stroke="#306EAF" stroke-width="2"></path>
                <path d="M419,403 L437,419" id="Stroke-41" stroke="#306EAF" stroke-width="2"></path>
                <path d="M57,94 L75,110" id="Stroke-42" stroke="#306EAF" stroke-width="2"></path>
                <path d="M427,394 L445,410" id="Stroke-43" stroke="#306EAF" stroke-width="2"></path>
                <path d="M48,105 L67,119" id="Stroke-44" stroke="#306EAF" stroke-width="2"></path>
                <path d="M433,385 L452,399" id="Stroke-45" stroke="#306EAF" stroke-width="2"></path>
                <path d="M40,115 L61,128" id="Stroke-46" stroke="#306EAF" stroke-width="2"></path>
                <path d="M440,374 L461,387" id="Stroke-47" stroke="#306EAF" stroke-width="2"></path>
                <path d="M34,126 L55,138" id="Stroke-48" stroke="#306EAF" stroke-width="2"></path>
                <path d="M446,364 L467,376" id="Stroke-49" stroke="#306EAF" stroke-width="2"></path>
                <path d="M28,138 L50,149" id="Stroke-50" stroke="#306EAF" stroke-width="2"></path>
                <path d="M451,354 L473,365" id="Stroke-51" stroke="#306EAF" stroke-width="2"></path>
                <path d="M22,150 L44,161" id="Stroke-52" stroke="#306EAF" stroke-width="2"></path>
                <path d="M456,344 L478,355" id="Stroke-53" stroke="#306EAF" stroke-width="2"></path>
                <path d="M17,162 L39,171" id="Stroke-54" stroke="#306EAF" stroke-width="2"></path>
                <path d="M462,332 L484,341" id="Stroke-55" stroke="#306EAF" stroke-width="2"></path>
                <path d="M12,173 L36,180" id="Stroke-56" stroke="#306EAF" stroke-width="2"></path>
                <path d="M466,322 L490,329" id="Stroke-57" stroke="#306EAF" stroke-width="2"></path>
                <path d="M9,186 L33,192" id="Stroke-58" stroke="#306EAF" stroke-width="2"></path>
                <path d="M468,310 L492,316" id="Stroke-59" stroke="#306EAF" stroke-width="2"></path>
                <g id="Group-97" transform="translate(0.000000, 199.000000)">
                    <path d="M5.47331301,0.0242097766 L29.268365,5.1113877" id="Stroke-60" stroke="#306EAF" stroke-width="2"></path>
                    <path d="M471.587956,99.6730965 L495.383008,104.760274" id="Stroke-62" stroke="#306EAF" stroke-width="2"></path>
                    <path d="M3.08273653,12.9908427 L27.1115156,16.8180832" id="Stroke-64" stroke="#306EAF" stroke-width="2"></path>
                    <path d="M473.744395,87.9672258 L497.773175,91.7944663" id="Stroke-66" stroke="#306EAF" stroke-width="2"></path>
                    <path d="M1.37078854,26.0640858 L25.5656368,28.6210783" id="Stroke-68" stroke="#306EAF" stroke-width="2"></path>
                    <path d="M475.290069,76.162581 L499.484917,78.7195736" id="Stroke-70" stroke="#306EAF" stroke-width="2"></path>
                    <path d="M0.343824765,39.2099144 L24.6391346,40.4904728" id="Stroke-72" stroke="#306EAF" stroke-width="2"></path>
                    <path d="M476.219032,64.2933928 L500.514342,65.5739511" id="Stroke-74" stroke="#306EAF" stroke-width="2"></path>
                    <g id="Group-78" transform="translate(0.000000, 51.938884)">
                        <mask id="mask-2" fill="white">
                            <use xlink:href="#path-1"></use>
                        </mask>
                        <g id="Clip-77"></g>
                        <path d="M-0.000615071136,0.453151991 L43.9892725,0.453151991" id="Stroke-76" stroke="#306EAF" stroke-width="3" mask="url(#mask-2)"></path>
                    </g>
                    <path d="M476.529438,52.3920359 L500.855501,52.3920359" id="Stroke-79" stroke="#306EAF" stroke-width="2"></path>
                    <path d="M0.343824765,65.5741573 L24.6391346,64.293599" id="Stroke-81" stroke="#306EAF" stroke-width="2"></path>
                    <path d="M456.557463,40.490679 L500.512496,39.2101206" id="Stroke-83" stroke="#306EAF" stroke-width="2"></path>
                    <path d="M1.37078854,78.719986 L25.5656368,76.1629934" id="Stroke-85" stroke="#306EAF" stroke-width="2"></path>
                    <path d="M475.290069,28.621697 L499.484917,26.0647044" id="Stroke-87" stroke="#306EAF" stroke-width="2"></path>
                    <path d="M3.08273653,91.7952911 L27.1115156,87.9680507" id="Stroke-89" stroke="#306EAF" stroke-width="2"></path>
                    <path d="M473.744395,16.818908 L497.773175,12.9916676" id="Stroke-91" stroke="#306EAF" stroke-width="2"></path>
                    <path d="M5.47331301,104.759862 L29.268365,99.6726841" id="Stroke-93" stroke="#306EAF" stroke-width="2"></path>
                    <path d="M471.587956,5.11097528 L495.383008,0.0237973584" id="Stroke-95" stroke="#306EAF" stroke-width="2"></path>
                </g>
                <path d="M9,316 L33,310" id="Stroke-98" stroke="#306EAF" stroke-width="2"></path>
                <path d="M468,192 L492,186" id="Stroke-99" stroke="#306EAF" stroke-width="2"></path>
                <path d="M12,329 L36,322" id="Stroke-100" stroke="#306EAF" stroke-width="2"></path>
                <path d="M466,180 L490,173" id="Stroke-101" stroke="#306EAF" stroke-width="2"></path>
                <path d="M17,341 L39,332" id="Stroke-102" stroke="#306EAF" stroke-width="2"></path>
                <path d="M462,171 L484,162" id="Stroke-103" stroke="#306EAF" stroke-width="2"></path>
                <path d="M22,355 L44,344" id="Stroke-104" stroke="#306EAF" stroke-width="2"></path>
                <path d="M456,161 L478,150" id="Stroke-105" stroke="#306EAF" stroke-width="2"></path>
                <path d="M28,365 L50,354" id="Stroke-106" stroke="#306EAF" stroke-width="2"></path>
                <path d="M451,149 L473,138" id="Stroke-107" stroke="#306EAF" stroke-width="2"></path>
                <path d="M34,376 L55,364" id="Stroke-108" stroke="#306EAF" stroke-width="2"></path>
                <path d="M446,138 L467,126" id="Stroke-109" stroke="#306EAF" stroke-width="2"></path>
                <path d="M40,387 L61,374" id="Stroke-110" stroke="#306EAF" stroke-width="2"></path>
                <path d="M440,128 L461,115" id="Stroke-111" stroke="#306EAF" stroke-width="2"></path>
                <path d="M48,399 L67,385" id="Stroke-112" stroke="#306EAF" stroke-width="2"></path>
                <path d="M433,119 L452,105" id="Stroke-113" stroke="#306EAF" stroke-width="2"></path>
                <path d="M57,410 L75,394" id="Stroke-114" stroke="#306EAF" stroke-width="2"></path>
                <path d="M427,110 L445,94" id="Stroke-115" stroke="#306EAF" stroke-width="2"></path>
                <path d="M64,419 L82,403" id="Stroke-116" stroke="#306EAF" stroke-width="2"></path>
                <path d="M419,100 L437,84" id="Stroke-117" stroke="#306EAF" stroke-width="2"></path>
                <path d="M73,428 L90,411" id="Stroke-118" stroke="#306EAF" stroke-width="2"></path>
                <path d="M410,91 L427,74" id="Stroke-119" stroke="#306EAF" stroke-width="2"></path>
                <path d="M82,438 L98,420" id="Stroke-120" stroke="#306EAF" stroke-width="2"></path>
                <path d="M402,83 L418,65" id="Stroke-121" stroke="#306EAF" stroke-width="2"></path>
                <path d="M93,446 L109,428" id="Stroke-122" stroke="#306EAF" stroke-width="2"></path>
                <path d="M393,75 L409,57" id="Stroke-123" stroke="#306EAF" stroke-width="2"></path>
                <path d="M104,453 L118,434" id="Stroke-124" stroke="#306EAF" stroke-width="2"></path>
                <path d="M384,67 L398,48" id="Stroke-125" stroke="#306EAF" stroke-width="2"></path>
                <path d="M114,462 L127,441" id="Stroke-126" stroke="#306EAF" stroke-width="2"></path>
                <path d="M374,61 L387,40" id="Stroke-127" stroke="#306EAF" stroke-width="2"></path>
                <path d="M126,468 L138,447" id="Stroke-128" stroke="#306EAF" stroke-width="2"></path>
                <path d="M363,55 L375,34" id="Stroke-129" stroke="#306EAF" stroke-width="2"></path>
                <path d="M138,474 L149,452" id="Stroke-130" stroke="#306EAF" stroke-width="2"></path>
                <path d="M353,50 L364,28" id="Stroke-131" stroke="#306EAF" stroke-width="2"></path>
                <path d="M150,479 L161,457" id="Stroke-132" stroke="#306EAF" stroke-width="2"></path>
                <path d="M343,44 L354,22" id="Stroke-133" stroke="#306EAF" stroke-width="2"></path>
                <path d="M161,485 L170,463" id="Stroke-134" stroke="#306EAF" stroke-width="2"></path>
                <path d="M330,39 L339,17" id="Stroke-135" stroke="#306EAF" stroke-width="2"></path>
                <path d="M173,491 L180,467" id="Stroke-136" stroke="#306EAF" stroke-width="2"></path>
                <path d="M321,37 L328,13" id="Stroke-137" stroke="#306EAF" stroke-width="2"></path>
                <path d="M185,493 L191,469" id="Stroke-138" stroke="#306EAF" stroke-width="2"></path>
                <path d="M309,33 L315,9" id="Stroke-139" stroke="#306EAF" stroke-width="2"></path>
                <g id="Group-161" transform="translate(197.000000, 0.000000)">
                    <path d="M0.240344223,495.369353 L5.32752215,471.581866" id="Stroke-140" stroke="#306EAF" stroke-width="2"></path>
                    <path d="M99.8892309,29.4028981 L104.976409,5.61541112" id="Stroke-142" stroke="#306EAF" stroke-width="2"></path>
                    <path d="M13.2049151,497.75917 L17.0321556,473.73803" id="Stroke-144" stroke="#306EAF" stroke-width="2"></path>
                    <path d="M88.1812982,27.2471443 L92.0085386,3.22600457" id="Stroke-146" stroke="#306EAF" stroke-width="2"></path>
                    <path d="M26.2802202,499.468524 L28.8372128,475.281368" id="Stroke-148" stroke="#306EAF" stroke-width="2"></path>
                    <path d="M76.3785092,25.701962 L78.9355018,1.5148058" id="Stroke-150" stroke="#306EAF" stroke-width="2"></path>
                    <path d="M39.4260489,500.497211 L40.7066072,476.209625" id="Stroke-152" stroke="#306EAF" stroke-width="2"></path>
                    <path d="M64.5095272,24.7732949 L65.7900856,0.485709017" id="Stroke-154" stroke="#306EAF" stroke-width="2"></path>
                    <g id="Group-158" transform="translate(52.306693, 452.958352)">
                        <mask id="mask-4" fill="white">
                            <use xlink:href="#path-3"></use>
                        </mask>
                        <g id="Clip-157"></g>
                        <path d="M0.30147767,47.883189 L0.30147767,0.629999823" id="Stroke-156" stroke="#306EAF" stroke-width="4" mask="url(#mask-4)"></path>
                    </g>
                    <path d="M52.6081703,44.1183058 L52.6081703,0.144453064" id="Stroke-159" stroke="#306EAF" stroke-width="2"></path>
                </g>
            </g>
        </g>
    </g>
</svg>